<?xml version="1.0" standalone="no"?>
<!DOCTYPE svg PUBLIC "-//W3C//DTD SVG 20010904//EN"
 "http://www.w3.org/TR/2001/REC-SVG-20010904/DTD/svg10.dtd">
<svg version="1.0" xmlns="http://www.w3.org/2000/svg"
 width="512.000000pt" height="512.000000pt" viewBox="0 0 512.000000 512.000000"
 preserveAspectRatio="xMidYMid meet">

<g transform="translate(0.000000,512.000000) scale(0.100000,-0.100000)"
fill="#000000" stroke="none">
<path d="M129 4971 c7 -11 14 -21 17 -21 3 0 2 6 -2 13 -6 9 -4 9 7 1 8 -6
100 -73 204 -149 105 -76 195 -145 200 -154 14 -22 46 -114 41 -118 -7 -8 -85
90 -80 99 4 6 -3 5 -15 -1 -24 -13 -27 -19 -8 -17 6 0 38 -27 69 -61 44 -47
58 -58 62 -45 2 9 15 61 27 115 21 87 27 100 51 113 15 8 28 17 28 20 0 2 -14
-2 -30 -11 -30 -15 -33 -14 -274 97 -167 77 -239 115 -228 120 15 6 15 7 1 7
-9 1 -31 4 -49 7 -31 7 -32 6 -21 -15z"/>
<path d="M228 4963 c7 -3 16 -2 19 1 4 3 -2 6 -13 5 -11 0 -14 -3 -6 -6z"/>
<path d="M268 4953 c6 -2 18 -2 25 0 6 3 1 5 -13 5 -14 0 -19 -2 -12 -5z"/>
<path d="M318 4943 c7 -3 16 -2 19 1 4 3 -2 6 -13 5 -11 0 -14 -3 -6 -6z"/>
<path d="M358 4933 c7 -3 16 -2 19 1 4 3 -2 6 -13 5 -11 0 -14 -3 -6 -6z"/>
<path d="M408 4923 c7 -3 16 -2 19 1 4 3 -2 6 -13 5 -11 0 -14 -3 -6 -6z"/>
<path d="M448 4913 c7 -3 16 -2 19 1 4 3 -2 6 -13 5 -11 0 -14 -3 -6 -6z"/>
<path d="M498 4903 c7 -3 16 -2 19 1 4 3 -2 6 -13 5 -11 0 -14 -3 -6 -6z"/>
<path d="M538 4893 c7 -3 16 -2 19 1 4 3 -2 6 -13 5 -11 0 -14 -3 -6 -6z"/>
<path d="M588 4883 c7 -3 16 -2 19 1 4 3 -2 6 -13 5 -11 0 -14 -3 -6 -6z"/>
<path d="M628 4873 c7 -3 16 -2 19 1 4 3 -2 6 -13 5 -11 0 -14 -3 -6 -6z"/>
<path d="M678 4863 c7 -3 16 -2 19 1 4 3 -2 6 -13 5 -11 0 -14 -3 -6 -6z"/>
<path d="M718 4853 c7 -3 16 -2 19 1 4 3 -2 6 -13 5 -11 0 -14 -3 -6 -6z"/>
<path d="M768 4843 c7 -3 16 -2 19 1 4 3 -2 6 -13 5 -11 0 -14 -3 -6 -6z"/>
<path d="M808 4833 c6 -2 10 -9 7 -14 -4 -5 1 -6 9 -3 20 8 11 24 -12 23 -11
0 -12 -2 -4 -6z"/>
<path d="M754 4784 c-18 -14 -18 -15 4 -4 12 6 22 13 22 15 0 8 -5 6 -26 -11z"/>
<path d="M4404 4714 c-18 -14 -18 -15 4 -4 12 6 22 13 22 15 0 8 -5 6 -26 -11z"/>
<path d="M326 4673 c53 -83 67 -103 71 -103 3 0 -3 12 -13 28 -53 82 -67 102
-71 102 -3 0 3 -12 13 -27z"/>
<path d="M4334 4674 c-18 -14 -18 -15 4 -4 12 6 22 13 22 15 0 8 -5 6 -26 -11z"/>
<path d="M4284 4644 c-18 -14 -18 -15 4 -4 12 6 22 13 22 15 0 8 -5 6 -26 -11z"/>
<path d="M4192 4596 c-62 -39 -66 -43 -49 -43 11 0 423 -236 440 -253 8 -7
-103 -79 -145 -95 -14 -5 -450 241 -456 257 -8 18 -22 -6 -21 -35 1 -32 1 -32
8 -5 l6 27 220 -128 220 -127 3 -257 c1 -141 0 -257 -3 -257 -5 0 -396 224
-493 282 -31 19 -32 21 -15 35 16 13 16 13 -4 3 -30 -14 -29 -22 5 -41 15 -9
161 -93 325 -188 l297 -173 0 -264 c0 -145 3 -264 8 -264 4 0 6 119 4 264 l-3
264 78 44 c43 23 81 44 85 46 4 2 8 -26 10 -62 l3 -66 55 33 55 33 3 70 3 69
73 43 c40 23 76 42 79 42 4 0 8 -55 10 -122 l3 -123 2 132 c1 79 -2 134 -8
138 -5 3 -10 2 -10 -4 0 -5 -36 -30 -80 -55 l-80 -47 -45 27 c-39 23 -44 28
-33 42 9 12 3 10 -22 -5 -19 -11 -56 -33 -82 -48 -27 -15 -48 -29 -48 -32 0
-2 4 -2 9 1 5 3 30 -6 56 -21 47 -26 47 -26 26 -42 -11 -9 -50 -32 -85 -51
l-64 -34 -49 30 -48 30 -3 260 -2 261 80 47 c44 25 82 46 85 46 3 0 5 -27 5
-60 0 -70 5 -72 73 -30 l47 30 0 68 0 68 74 42 c40 23 79 42 85 42 14 0 15 17
1 25 -5 3 -10 2 -10 -3 0 -6 -26 -25 -57 -42 -32 -18 -67 -39 -79 -46 -18 -13
-41 -2 -253 121 -128 74 -233 135 -234 134 -1 0 -26 -15 -55 -33z m289 -113
l219 -127 -43 -24 c-23 -14 -46 -25 -52 -25 -8 0 -283 157 -413 235 l-34 21
39 22 c21 13 44 24 52 24 8 1 112 -56 232 -126z m229 -201 l0 -59 -50 -27 -50
-27 0 59 c0 60 0 60 43 86 23 14 45 25 50 26 4 0 7 -26 7 -58z m74 -504 c17
-14 16 -16 -25 -40 l-44 -26 -48 26 -47 25 47 28 c50 29 62 28 117 -13z m22
-144 c-3 -7 -23 -22 -46 -34 l-40 -20 0 59 c0 59 0 59 43 84 l42 25 3 -50 c2
-28 1 -57 -2 -64z"/>
<path d="M438 4604 c-38 -20 -36 -28 2 -9 17 9 30 18 30 20 0 7 -1 6 -32 -11z"/>
<path d="M4650 4596 c0 -3 9 -10 20 -16 11 -6 20 -8 20 -6 0 3 -9 10 -20 16
-11 6 -20 8 -20 6z"/>
<path d="M4094 4534 c-18 -14 -18 -15 4 -4 12 6 22 13 22 15 0 8 -5 6 -26 -11z"/>
<path d="M4024 4494 c-18 -14 -18 -15 4 -4 12 6 22 13 22 15 0 8 -5 6 -26 -11z"/>
<path d="M612 4415 c0 -16 2 -22 5 -12 2 9 2 23 0 30 -3 6 -5 -1 -5 -18z"/>
<path d="M612 4300 c0 -19 2 -27 5 -17 2 9 2 25 0 35 -3 9 -5 1 -5 -18z"/>
<path d="M2148 4253 c7 -3 16 -2 19 1 4 3 -2 6 -13 5 -11 0 -14 -3 -6 -6z"/>
<path d="M2180 4246 c0 -2 7 -7 16 -10 8 -3 12 -2 9 4 -6 10 -25 14 -25 6z"/>
<path d="M2240 4216 c0 -3 9 -10 20 -16 11 -6 20 -8 20 -6 0 3 -9 10 -20 16
-11 6 -20 8 -20 6z"/>
<path d="M612 4185 c0 -16 2 -22 5 -12 2 9 2 23 0 30 -3 6 -5 -1 -5 -18z"/>
<path d="M2014 4184 c-18 -14 -18 -15 4 -4 12 6 22 13 22 15 0 8 -5 6 -26 -11z"/>
<path d="M2290 4186 c0 -3 14 -12 30 -21 17 -9 30 -13 30 -11 0 3 -13 12 -30
21 -16 9 -30 13 -30 11z"/>
<path d="M1944 4144 c-18 -14 -18 -15 4 -4 12 6 22 13 22 15 0 8 -5 6 -26 -11z"/>
<path d="M2360 4146 c0 -3 9 -10 20 -16 11 -6 20 -8 20 -6 0 3 -9 10 -20 16
-11 6 -20 8 -20 6z"/>
<path d="M2430 4106 c0 -3 9 -10 20 -16 11 -6 20 -8 20 -6 0 3 -9 10 -20 16
-11 6 -20 8 -20 6z"/>
<path d="M612 4070 c0 -19 2 -27 5 -17 2 9 2 25 0 35 -3 9 -5 1 -5 -18z"/>
<path d="M1824 4074 c-18 -14 -18 -15 4 -4 12 6 22 13 22 15 0 8 -5 6 -26 -11z"/>
<path d="M2500 4066 c0 -3 9 -10 20 -16 11 -6 20 -8 20 -6 0 3 -9 10 -20 16
-11 6 -20 8 -20 6z"/>
<path d="M3395 4040 c-12 -19 10 -32 46 -28 48 4 46 32 -3 36 -20 2 -39 -2
-43 -8z"/>
<path d="M2550 4036 c0 -3 14 -12 30 -21 17 -9 30 -13 30 -11 0 3 -13 12 -30
21 -16 9 -30 13 -30 11z"/>
<path d="M3955 4030 c-3 -5 -1 -10 4 -10 6 0 11 5 11 10 0 6 -2 10 -4 10 -3 0
-8 -4 -11 -10z"/>
<path d="M1704 4004 c-18 -14 -18 -15 4 -4 12 6 22 13 22 15 0 8 -5 6 -26 -11z"/>
<path d="M2620 3996 c0 -3 9 -10 20 -16 11 -6 20 -8 20 -6 0 3 -9 10 -20 16
-11 6 -20 8 -20 6z"/>
<path d="M612 3960 c0 -19 2 -27 5 -17 2 9 2 25 0 35 -3 9 -5 1 -5 -18z"/>
<path d="M4582 3953 c-4 -10 -6 -46 -4 -81 5 -81 26 -79 30 3 2 33 7 64 12 71
6 6 7 14 3 17 -12 13 -32 7 -41 -10z"/>
<path d="M2690 3956 c0 -3 9 -10 20 -16 11 -6 20 -8 20 -6 0 3 -9 10 -20 16
-11 6 -20 8 -20 6z"/>
<path d="M1584 3934 c-18 -14 -18 -15 4 -4 12 6 22 13 22 15 0 8 -5 6 -26 -11z"/>
<path d="M2740 3926 c0 -3 14 -12 30 -21 17 -9 30 -13 30 -11 0 3 -13 12 -30
21 -16 9 -30 13 -30 11z"/>
<path d="M4495 3903 c-14 -25 -7 -145 8 -140 7 2 13 29 15 62 2 33 7 64 12 71
6 6 7 14 3 17 -11 12 -28 7 -38 -10z"/>
<path d="M4844 3904 c-18 -14 -18 -15 4 -4 12 6 22 13 22 15 0 8 -5 6 -26 -11z"/>
<path d="M4910 3916 c0 -3 14 -12 30 -21 17 -9 30 -13 30 -11 0 3 -13 12 -30
21 -16 9 -30 13 -30 11z"/>
<path d="M1514 3894 c-18 -14 -18 -15 4 -4 12 6 22 13 22 15 0 8 -5 6 -26 -11z"/>
<path d="M2810 3886 c0 -3 14 -12 30 -21 17 -9 30 -13 30 -11 0 3 -13 12 -30
21 -16 9 -30 13 -30 11z"/>
<path d="M4794 3874 c-18 -14 -18 -15 4 -4 12 6 22 13 22 15 0 8 -5 6 -26 -11z"/>
<path d="M1464 3864 c-18 -14 -18 -15 4 -4 12 6 22 13 22 15 0 8 -5 6 -26 -11z"/>
<path d="M612 3840 c0 -19 2 -27 5 -17 2 9 2 25 0 35 -3 9 -5 1 -5 -18z"/>
<path d="M2880 3846 c0 -3 9 -10 20 -16 11 -6 20 -8 20 -6 0 3 -9 10 -20 16
-11 6 -20 8 -20 6z"/>
<path d="M1394 3824 c-18 -14 -18 -15 4 -4 12 6 22 13 22 15 0 8 -5 6 -26 -11z"/>
<path d="M2950 3806 c0 -3 9 -10 20 -16 11 -6 20 -8 20 -6 0 3 -9 10 -20 16
-11 6 -20 8 -20 6z"/>
<path d="M3000 3776 c0 -3 14 -12 30 -21 17 -9 30 -13 30 -11 0 3 -13 12 -30
21 -16 9 -30 13 -30 11z"/>
<path d="M1274 3754 c-18 -14 -18 -15 4 -4 12 6 22 13 22 15 0 8 -5 6 -26 -11z"/>
<path d="M612 3730 c0 -19 2 -27 5 -17 2 9 2 25 0 35 -3 9 -5 1 -5 -18z"/>
<path d="M3070 3736 c0 -3 9 -10 20 -16 11 -6 20 -8 20 -6 0 3 -9 10 -20 16
-11 6 -20 8 -20 6z"/>
<path d="M4534 3724 c-18 -14 -18 -15 4 -4 12 6 22 13 22 15 0 8 -5 6 -26 -11z"/>
<path d="M3120 3706 c0 -3 14 -12 30 -21 17 -9 30 -13 30 -11 0 3 -13 12 -30
21 -16 9 -30 13 -30 11z"/>
<path d="M1160 3690 c-9 -6 -10 -10 -3 -10 6 0 15 5 18 10 8 12 4 12 -15 0z"/>
<path d="M4464 3684 c-18 -14 -18 -15 4 -4 12 6 22 13 22 15 0 8 -5 6 -26 -11z"/>
<path d="M1143 3664 c5 -5 302 -178 660 -385 l652 -377 3 -717 c2 -635 0 -717
-13 -711 -27 10 -15 -3 18 -20 20 -10 27 -11 20 -3 -10 10 -13 146 -13 611 0
329 2 598 4 598 9 0 322 -183 340 -199 28 -25 46 -67 140 -331 l88 -245 152
-161 c112 -118 155 -170 159 -194 4 -18 7 -153 7 -301 0 -246 -1 -268 -17
-272 -10 -3 -1 -5 19 -6 20 0 39 3 42 8 4 5 -3 7 -14 4 -20 -5 -20 0 -20 268
0 166 -4 289 -11 313 -8 30 -44 73 -155 186 -108 111 -141 150 -132 157 7 6
128 77 268 158 140 81 260 152 265 158 16 15 -18 -4 -292 -164 -173 -101 -259
-146 -264 -138 -4 7 -49 129 -100 271 -54 151 -103 270 -116 284 l-22 24 92
54 c614 361 922 534 935 524 7 -7 22 -28 32 -47 11 -20 19 -31 20 -25 0 17
-42 75 -68 92 -15 10 -22 11 -20 3 3 -11 -981 -591 -1003 -591 -10 0 -255 140
-301 172 -28 19 -28 21 -28 128 l0 108 496 288 c273 159 501 291 505 292 5 2
9 -45 9 -104 0 -90 -3 -109 -17 -121 -16 -13 -16 -13 5 -3 15 8 29 8 45 0 l22
-11 -22 17 c-22 15 -23 24 -23 130 0 107 -1 114 -22 125 -20 11 -22 10 -10 -3
11 -14 5 -21 -45 -51 -111 -66 -927 -539 -939 -544 -7 -2 -290 156 -630 353
-737 425 -711 410 -701 398z"/>
<path d="M3190 3666 c0 -3 14 -12 30 -21 17 -9 30 -13 30 -11 0 3 -13 12 -30
21 -16 9 -30 13 -30 11z"/>
<path d="M1132 3433 c-1 -123 -5 -223 -8 -223 -3 0 -15 5 -27 11 -21 10 -21
10 -3 -5 11 -9 23 -16 28 -16 4 0 8 -75 8 -167 l-1 -168 -392 -227 c-216 -125
-404 -240 -418 -255 -21 -24 -19 -23 13 4 72 61 138 56 276 -19 l92 -51 0 -65
c0 -62 -1 -64 -22 -59 -22 6 -22 6 -4 -8 25 -19 28 -19 52 0 17 13 17 14 1 9
-16 -6 -18 0 -15 61 l3 67 205 120 205 119 3 -63 c3 -66 3 -66 -54 -106 -11
-7 -2 -4 19 7 l37 20 0 -85 c0 -92 8 -117 43 -134 19 -10 19 -9 -3 9 l-25 20
-5 713 c-3 392 -6 613 -8 491z"/>
<path d="M612 3615 c0 -16 2 -22 5 -12 2 9 2 23 0 30 -3 6 -5 -1 -5 -18z"/>
<path d="M3260 3626 c0 -3 14 -12 30 -21 17 -9 30 -13 30 -11 0 3 -13 12 -30
21 -16 9 -30 13 -30 11z"/>
<path d="M3330 3586 c0 -3 9 -10 20 -16 11 -6 20 -8 20 -6 0 3 -9 10 -20 16
-11 6 -20 8 -20 6z"/>
<path d="M3400 3546 c0 -3 9 -10 20 -16 11 -6 20 -8 20 -6 0 3 -9 10 -20 16
-11 6 -20 8 -20 6z"/>
<path d="M611 3519 c-1 -9 7 -23 17 -30 15 -12 16 -12 6 1 -6 8 -14 22 -17 30
-5 13 -6 12 -6 -1z"/>
<path d="M3910 3436 c0 -3 9 -10 20 -16 11 -6 20 -8 20 -6 0 3 -9 10 -20 16
-11 6 -20 8 -20 6z"/>
<path d="M3960 3406 c0 -3 14 -12 30 -21 17 -9 30 -13 30 -11 0 3 -13 12 -30
21 -16 9 -30 13 -30 11z"/>
<path d="M790 3396 c0 -3 9 -10 20 -16 11 -6 20 -8 20 -6 0 3 -9 10 -20 16
-11 6 -20 8 -20 6z"/>
<path d="M4684 3349 c-8 -17 -11 -28 -5 -25 7 5 11 -11 11 -49 0 -79 24 -70
28 10 2 33 7 65 13 71 6 8 4 14 -7 18 -23 9 -22 9 -40 -25z"/>
<path d="M4030 3366 c0 -3 14 -12 30 -21 17 -9 30 -13 30 -11 0 3 -13 12 -30
21 -16 9 -30 13 -30 11z"/>
<path d="M4968 3324 c-38 -20 -36 -28 2 -9 17 9 30 18 30 20 0 7 -1 6 -32 -11z"/>
<path d="M917 3319 c7 -7 15 -10 18 -7 3 3 -2 9 -12 12 -14 6 -15 5 -6 -5z"/>
<path d="M4100 3326 c0 -3 9 -10 20 -16 11 -6 20 -8 20 -6 0 3 -9 10 -20 16
-11 6 -20 8 -20 6z"/>
<path d="M4594 3299 c-8 -17 -11 -28 -5 -25 7 5 11 -11 11 -49 0 -79 24 -70
28 10 2 33 7 65 13 71 6 8 4 14 -7 18 -23 9 -22 9 -40 -25z"/>
<path d="M4150 3296 c0 -3 14 -12 30 -21 17 -9 30 -13 30 -11 0 3 -13 12 -30
21 -16 9 -30 13 -30 11z"/>
<path d="M4904 3284 c-18 -14 -18 -15 4 -4 12 6 22 13 22 15 0 8 -5 6 -26 -11z"/>
<path d="M990 3276 c0 -2 7 -7 16 -10 8 -3 12 -2 9 4 -6 10 -25 14 -25 6z"/>
<path d="M4220 3256 c0 -3 9 -10 20 -16 11 -6 20 -8 20 -6 0 3 -9 10 -20 16
-11 6 -20 8 -20 6z"/>
<path d="M4834 3244 c-18 -14 -18 -15 4 -4 12 6 22 13 22 15 0 8 -5 6 -26 -11z"/>
<path d="M3408 3224 c-38 -20 -36 -28 2 -9 17 9 30 18 30 20 0 7 -1 6 -32 -11z"/>
<path d="M3540 3236 c0 -3 14 -12 30 -21 17 -9 30 -13 30 -11 0 3 -13 12 -30
21 -16 9 -30 13 -30 11z"/>
<path d="M4270 3226 c0 -3 14 -12 30 -21 17 -9 30 -13 30 -11 0 3 -13 12 -30
21 -16 9 -30 13 -30 11z"/>
<path d="M4778 3214 c-38 -20 -36 -28 2 -9 17 9 30 18 30 20 0 7 -1 6 -32 -11z"/>
<path d="M3344 3184 c-18 -14 -18 -15 4 -4 12 6 22 13 22 15 0 8 -5 6 -26 -11z"/>
<path d="M3610 3196 c0 -3 9 -10 20 -16 11 -6 20 -8 20 -6 0 3 -9 10 -20 16
-11 6 -20 8 -20 6z"/>
<path d="M4340 3186 c0 -3 9 -10 20 -16 11 -6 20 -8 20 -6 0 3 -9 10 -20 16
-11 6 -20 8 -20 6z"/>
<path d="M4714 3174 c-18 -14 -18 -15 4 -4 12 6 22 13 22 15 0 8 -5 6 -26 -11z"/>
<path d="M3660 3166 c0 -3 14 -12 30 -21 17 -9 30 -13 30 -11 0 3 -13 12 -30
21 -16 9 -30 13 -30 11z"/>
<path d="M3274 3144 c-18 -14 -18 -15 4 -4 12 6 22 13 22 15 0 8 -5 6 -26 -11z"/>
<path d="M4410 3146 c0 -3 9 -10 20 -16 11 -6 20 -8 20 -6 0 3 -9 10 -20 16
-11 6 -20 8 -20 6z"/>
<path d="M4644 3134 c-18 -14 -18 -15 4 -4 12 6 22 13 22 15 0 8 -5 6 -26 -11z"/>
<path d="M3218 3114 c-38 -20 -36 -28 2 -9 17 9 30 18 30 20 0 7 -1 6 -32 -11z"/>
<path d="M3730 3126 c0 -3 14 -12 30 -21 17 -9 30 -13 30 -11 0 3 -13 12 -30
21 -16 9 -30 13 -30 11z"/>
<path d="M4460 3116 c0 -3 14 -12 30 -21 17 -9 30 -13 30 -11 0 3 -13 12 -30
21 -16 9 -30 13 -30 11z"/>
<path d="M4588 3104 c-38 -20 -36 -28 2 -9 17 9 30 18 30 20 0 7 -1 6 -32 -11z"/>
<path d="M3154 3074 c-18 -14 -18 -15 4 -4 12 6 22 13 22 15 0 8 -5 6 -26 -11z"/>
<path d="M3098 3044 c-38 -20 -36 -28 2 -9 17 9 30 18 30 20 0 7 -1 6 -32 -11z"/>
<path d="M3034 3004 c-18 -14 -18 -15 4 -4 12 6 22 13 22 15 0 8 -5 6 -26 -11z"/>
<path d="M2964 2964 c-18 -14 -18 -15 4 -4 12 6 22 13 22 15 0 8 -5 6 -26 -11z"/>
<path d="M3896 2950 c3 -14 11 -32 16 -40 6 -10 7 -7 2 10 -3 14 -11 32 -16
40 -6 10 -7 7 -2 -10z"/>
<path d="M2908 2934 c-38 -20 -36 -28 2 -9 17 9 30 18 30 20 0 7 -1 6 -32 -11z"/>
<path d="M3757 2916 c-17 -13 -17 -14 1 -18 23 -6 157 -374 146 -402 -6 -16
-4 -17 14 -7 12 6 24 22 27 34 6 22 -114 367 -137 394 -13 16 -28 16 -51 -1z"/>
<path d="M2844 2894 c-18 -14 -18 -15 4 -4 12 6 22 13 22 15 0 8 -5 6 -26 -11z"/>
<path d="M2788 2864 c-38 -20 -36 -28 2 -9 17 9 30 18 30 20 0 7 -1 6 -32 -11z"/>
<path d="M2724 2824 c-18 -14 -18 -15 4 -4 12 6 22 13 22 15 0 8 -5 6 -26 -11z"/>
<path d="M3946 2810 c3 -14 11 -32 16 -40 6 -10 7 -7 2 10 -3 14 -11 32 -16
40 -6 10 -7 7 -2 -10z"/>
<path d="M2654 2784 c-18 -14 -18 -15 4 -4 12 6 22 13 22 15 0 8 -5 6 -26 -11z"/>
<path d="M2604 2754 c-18 -14 -18 -15 4 -4 12 6 22 13 22 15 0 8 -5 6 -26 -11z"/>
<path d="M2534 2714 c-18 -14 -18 -15 4 -4 12 6 22 13 22 15 0 8 -5 6 -26 -11z"/>
<path d="M3986 2700 c3 -14 11 -32 16 -40 6 -10 7 -7 2 10 -3 14 -11 32 -16
40 -6 10 -7 7 -2 -10z"/>
<path d="M2490 2690 c-9 -6 -10 -10 -3 -10 6 0 15 5 18 10 8 12 4 12 -15 0z"/>
<path d="M4515 2636 c-18 -13 -18 -14 4 -25 26 -15 81 -5 81 14 0 26 -55 33
-85 11z"/>
<path d="M4026 2590 c4 -14 13 -38 20 -55 11 -24 13 -25 8 -5 -4 14 -13 39
-20 55 -11 24 -13 25 -8 5z"/>
<path d="M2558 2383 c-3 -71 -2 -134 2 -142 8 -15 304 -191 321 -191 5 0 9 3
8 8 -3 30 -31 53 -149 122 l-135 78 -3 118 c-2 110 -8 133 -33 134 -4 0 -9
-57 -11 -127z"/>
<path d="M4060 2488 c0 -10 -26 -31 -65 -53 -36 -20 -65 -38 -65 -41 0 -5 103
50 126 67 13 10 298 -276 309 -309 4 -13 9 -21 12 -19 12 13 -36 73 -152 187
-70 69 -136 139 -146 155 -12 20 -19 24 -19 13z"/>
<path d="M3773 2307 c-78 -46 -146 -87 -150 -92 -10 -11 -13 -12 155 85 121
70 153 91 140 90 -2 0 -67 -38 -145 -83z"/>
<path d="M1024 2364 c-18 -14 -18 -15 4 -4 12 6 22 13 22 15 0 8 -5 6 -26 -11z"/>
<path d="M954 2324 c-18 -14 -18 -15 4 -4 12 6 22 13 22 15 0 8 -5 6 -26 -11z"/>
<path d="M276 2315 c-3 -9 -6 -24 -5 -33 0 -9 5 -4 10 12 9 32 6 48 -5 21z"/>
<path d="M898 2294 c-38 -20 -36 -28 2 -9 17 9 30 18 30 20 0 7 -1 6 -32 -11z"/>
<path d="M1368 2293 c7 -3 16 -2 19 1 4 3 -2 6 -13 5 -11 0 -14 -3 -6 -6z"/>
<path d="M1385 2265 c-81 -53 -88 -64 -91 -152 l-3 -78 8 70 c11 108 41 145
116 145 126 0 286 -192 301 -361 11 -117 -21 -169 -109 -180 l-52 -6 45 -1
c38 -2 60 7 140 54 l95 55 35 -15 c36 -16 31 -12 -48 39 -43 28 -47 34 -59 93
-19 93 -66 184 -134 257 -57 60 -143 116 -178 114 -9 0 -38 -15 -66 -34z"/>
<path d="M1299 2253 l-24 -28 28 24 c25 23 32 31 24 31 -2 0 -14 -12 -28 -27z"/>
<path d="M433 2255 c-74 -52 -44 -236 58 -358 37 -45 -29 -6 1369 -812 608
-350 1111 -642 1118 -647 7 -7 12 -35 12 -75 l0 -65 -66 37 c-37 21 -64 34
-61 29 3 -5 34 -24 69 -43 l63 -34 900 523 c495 287 905 527 910 532 14 15
-22 -5 -180 -97 -191 -111 -549 -320 -1110 -645 -258 -150 -480 -280 -492
-288 l-23 -14 0 69 0 69 937 544 c515 300 963 560 995 578 l58 33 0 -68 0 -68
-85 -48 c-47 -27 -85 -51 -85 -53 0 -3 3 -3 8 -1 4 2 44 26 90 52 l82 47 0 79
c0 71 -2 79 -22 89 -21 10 -21 10 -6 -3 15 -12 -89 -75 -969 -587 -542 -315
-993 -575 -1002 -577 -26 -7 -2436 1388 -2489 1440 -24 23 -57 71 -74 107 -26
53 -32 78 -32 136 -1 76 13 106 59 125 14 5 15 8 5 8 -9 1 -25 -6 -37 -14z"/>
<path d="M518 2263 c7 -3 16 -2 19 1 4 3 -2 6 -13 5 -11 0 -14 -3 -6 -6z"/>
<path d="M834 2254 c-18 -14 -18 -15 4 -4 12 6 22 13 22 15 0 8 -5 6 -26 -11z"/>
<path d="M550 2256 c0 -2 7 -7 16 -10 8 -3 12 -2 9 4 -6 10 -25 14 -25 6z"/>
<path d="M263 2215 c0 -22 2 -30 4 -17 2 12 2 30 0 40 -3 9 -5 -1 -4 -23z"/>
<path d="M590 2236 c0 -3 14 -12 30 -21 17 -9 30 -13 30 -11 0 3 -13 12 -30
21 -16 9 -30 13 -30 11z"/>
<path d="M778 2224 c-38 -20 -36 -28 2 -9 17 9 30 18 30 20 0 7 -1 6 -32 -11z"/>
<path d="M1261 2188 c-1 -21 -13 -22 -44 -7 -21 10 -21 10 -3 -5 25 -20 37
-20 62 0 10 8 14 13 7 10 -6 -4 -14 0 -16 6 -3 8 -6 6 -6 -4z"/>
<path d="M271 2149 c-1 -41 28 -128 72 -214 49 -95 172 -224 255 -268 71 -38
66 -27 -5 14 -95 53 -193 161 -247 270 -26 52 -53 123 -60 159 -8 36 -15 53
-15 39z"/>
<path d="M2555 2130 c-4 -6 -4 -14 -1 -17 3 -4 6 -1 6 6 0 8 17 3 48 -14 99
-58 119 -68 93 -48 -55 41 -140 83 -146 73z"/>
<path d="M1429 2089 c-68 -68 59 -270 145 -231 30 14 34 32 7 32 -27 0 -78 46
-101 91 -22 42 -27 119 -9 119 15 0 79 -39 79 -48 0 -4 10 -18 21 -32 l21 -25
-19 34 c-20 37 -78 81 -105 81 -10 0 -28 -10 -39 -21z"/>
<path d="M4384 1840 c0 -186 1 -213 3 -82 3 149 6 191 16 186 9 -6 9 -5 0 7
-7 8 -14 48 -16 89 -1 41 -3 -49 -3 -200z"/>
<path d="M2560 2096 c0 -3 9 -10 20 -16 11 -6 20 -8 20 -6 0 3 -9 10 -20 16
-11 6 -20 8 -20 6z"/>
<path d="M4275 2060 c-3 -6 1 -7 9 -4 18 7 21 14 7 14 -6 0 -13 -4 -16 -10z"/>
<path d="M2630 2056 c0 -3 9 -10 20 -16 11 -6 20 -8 20 -6 0 3 -9 10 -20 16
-11 6 -20 8 -20 6z"/>
<path d="M4234 2034 c-18 -14 -18 -15 4 -4 12 6 22 13 22 15 0 8 -5 6 -26 -11z"/>
<path d="M1301 2014 c0 -11 3 -14 6 -6 3 7 2 16 -1 19 -3 4 -6 -2 -5 -13z"/>
<path d="M2688 2018 c5 -5 16 -8 23 -6 8 3 3 7 -10 11 -17 4 -21 3 -13 -5z"/>
<path d="M4164 1994 c-18 -14 -18 -15 4 -4 12 6 22 13 22 15 0 8 -5 6 -26 -11z"/>
<path d="M1315 1970 c9 -30 34 -80 40 -80 4 0 -35 92 -43 100 -2 3 -1 -6 3
-20z"/>
<path d="M4114 1964 c-18 -14 -18 -15 4 -4 12 6 22 13 22 15 0 8 -5 6 -26 -11z"/>
<path d="M1602 1930 c0 -19 2 -27 5 -17 2 9 2 25 0 35 -3 9 -5 1 -5 -18z"/>
<path d="M4244 1944 c-18 -14 -18 -15 4 -4 12 6 22 13 22 15 0 8 -5 6 -26 -11z"/>
<path d="M4044 1924 c-18 -14 -18 -15 4 -4 12 6 22 13 22 15 0 8 -5 6 -26 -11z"/>
<path d="M4440 1926 c0 -3 9 -10 20 -16 11 -6 20 -8 20 -6 0 3 -9 10 -20 16
-11 6 -20 8 -20 6z"/>
<path d="M4174 1904 c-18 -14 -18 -15 4 -4 12 6 22 13 22 15 0 8 -5 6 -26 -11z"/>
<path d="M4490 1896 c0 -3 14 -12 30 -21 17 -9 30 -13 30 -11 0 3 -13 12 -30
21 -16 9 -30 13 -30 11z"/>
<path d="M4124 1874 c-18 -14 -18 -15 4 -4 12 6 22 13 22 15 0 8 -5 6 -26 -11z"/>
<path d="M1366 1870 c28 -57 145 -161 178 -160 6 1 -5 9 -24 20 -39 21 -92 68
-134 120 -15 19 -25 28 -20 20z"/>
<path d="M3924 1854 c-18 -14 -18 -15 4 -4 12 6 22 13 22 15 0 8 -5 6 -26 -11z"/>
<path d="M4254 1854 c-18 -14 -18 -15 4 -4 12 6 22 13 22 15 0 8 -5 6 -26 -11z"/>
<path d="M4560 1856 c0 -3 14 -12 30 -21 17 -9 30 -13 30 -11 0 3 -13 12 -30
21 -16 9 -30 13 -30 11z"/>
<path d="M4054 1834 c-18 -14 -18 -15 4 -4 12 6 22 13 22 15 0 8 -5 6 -26 -11z"/>
<path d="M3854 1814 c-18 -14 -18 -15 4 -4 12 6 22 13 22 15 0 8 -5 6 -26 -11z"/>
<path d="M4184 1814 c-18 -14 -18 -15 4 -4 12 6 22 13 22 15 0 8 -5 6 -26 -11z"/>
<path d="M4004 1804 c-18 -14 -18 -15 4 -4 12 6 22 13 22 15 0 8 -5 6 -26 -11z"/>
<path d="M4630 1816 c0 -3 9 -10 20 -16 11 -6 20 -8 20 -6 0 3 -9 10 -20 16
-11 6 -20 8 -20 6z"/>
<path d="M3804 1784 c-18 -14 -18 -15 4 -4 12 6 22 13 22 15 0 8 -5 6 -26 -11z"/>
<path d="M4134 1784 c-18 -14 -18 -15 4 -4 12 6 22 13 22 15 0 8 -5 6 -26 -11z"/>
<path d="M1910 1776 c0 -3 14 -12 30 -21 17 -9 30 -13 30 -11 0 3 -13 12 -30
21 -16 9 -30 13 -30 11z"/>
<path d="M3934 1764 c-18 -14 -18 -15 4 -4 12 6 22 13 22 15 0 8 -5 6 -26 -11z"/>
<path d="M4700 1776 c0 -3 9 -10 20 -16 11 -6 20 -8 20 -6 0 3 -9 10 -20 16
-11 6 -20 8 -20 6z"/>
<path d="M3734 1744 c-18 -14 -18 -15 4 -4 12 6 22 13 22 15 0 8 -5 6 -26 -11z"/>
<path d="M4064 1744 c-18 -14 -18 -15 4 -4 12 6 22 13 22 15 0 8 -5 6 -26 -11z"/>
<path d="M4192 1723 c-22 -22 -24 -26 -6 -9 18 15 47 32 66 36 31 8 32 8 5 9
-20 1 -39 -10 -65 -36z"/>
<path d="M3884 1734 c-18 -14 -18 -15 4 -4 12 6 22 13 22 15 0 8 -5 6 -26 -11z"/>
<path d="M1980 1736 c0 -3 14 -12 30 -21 17 -9 30 -13 30 -11 0 3 -13 12 -30
21 -16 9 -30 13 -30 11z"/>
<path d="M4770 1736 c0 -3 9 -10 20 -16 11 -6 20 -8 20 -6 0 3 -9 10 -20 16
-11 6 -20 8 -20 6z"/>
<path d="M3684 1714 c-18 -14 -18 -15 4 -4 12 6 22 13 22 15 0 8 -5 6 -26 -11z"/>
<path d="M3994 1704 c-18 -14 -18 -15 4 -4 12 6 22 13 22 15 0 8 -5 6 -26 -11z"/>
<path d="M3814 1694 c-18 -14 -18 -15 4 -4 12 6 22 13 22 15 0 8 -5 6 -26 -11z"/>
<path d="M4250 1685 c0 -38 -27 -83 -61 -104 -24 -15 -27 -20 -14 -25 45 -17
115 72 101 128 -8 33 -26 34 -26 1z"/>
<path d="M4312 1685 c0 -16 2 -22 5 -12 2 9 2 23 0 30 -3 6 -5 -1 -5 -18z"/>
<path d="M4820 1706 c0 -3 14 -12 30 -21 17 -9 30 -13 30 -11 0 3 -13 12 -30
21 -16 9 -30 13 -30 11z"/>
<path d="M2050 1696 c0 -3 9 -10 20 -16 11 -6 20 -8 20 -6 0 3 -9 10 -20 16
-11 6 -20 8 -20 6z"/>
<path d="M3614 1674 c-18 -14 -18 -15 4 -4 12 6 22 13 22 15 0 8 -5 6 -26 -11z"/>
<path d="M3944 1674 c-18 -14 -18 -15 4 -4 12 6 22 13 22 15 0 8 -5 6 -26 -11z"/>
<path d="M2100 1666 c0 -3 14 -12 30 -21 17 -9 30 -13 30 -11 0 3 -13 12 -30
21 -16 9 -30 13 -30 11z"/>
<path d="M3744 1654 c-18 -14 -18 -15 4 -4 12 6 22 13 22 15 0 8 -5 6 -26 -11z"/>
<path d="M4890 1666 c0 -3 9 -10 20 -16 11 -6 20 -8 20 -6 0 3 -9 10 -20 16
-11 6 -20 8 -20 6z"/>
<path d="M3874 1634 c-18 -14 -18 -15 4 -4 12 6 22 13 22 15 0 8 -5 6 -26 -11z"/>
<path d="M660 1636 c0 -2 53 -35 118 -71 64 -37 120 -70 125 -72 4 -2 7 -2 7
0 0 3 -53 35 -117 73 -143 81 -133 76 -133 70z"/>
<path d="M3694 1624 c-18 -14 -18 -15 4 -4 12 6 22 13 22 15 0 8 -5 6 -26 -11z"/>
<path d="M2170 1626 c0 -3 14 -12 30 -21 17 -9 30 -13 30 -11 0 3 -13 12 -30
21 -16 9 -30 13 -30 11z"/>
<path d="M4121 1614 c0 -11 3 -14 6 -6 3 7 2 16 -1 19 -3 4 -6 -2 -5 -13z"/>
<path d="M3494 1604 c-18 -14 -18 -15 4 -4 12 6 22 13 22 15 0 8 -5 6 -26 -11z"/>
<path d="M3824 1604 c-18 -14 -18 -15 4 -4 12 6 22 13 22 15 0 8 -5 6 -26 -11z"/>
<path d="M4277 1587 l-17 -32 20 24 c17 20 26 41 18 41 -2 0 -11 -15 -21 -33z"/>
<path d="M3624 1584 c-18 -14 -18 -15 4 -4 12 6 22 13 22 15 0 8 -5 6 -26 -11z"/>
<path d="M4024 1540 c-3 -33 -13 -65 -21 -71 -7 -7 -77 -49 -155 -94 -127 -74
-169 -105 -140 -105 13 0 301 167 325 187 12 12 17 31 17 74 0 78 -17 84 -26
9z"/>
<path d="M2240 1586 c0 -3 14 -12 30 -21 17 -9 30 -13 30 -11 0 3 -13 12 -30
21 -16 9 -30 13 -30 11z"/>
<path d="M3754 1564 c-18 -14 -18 -15 4 -4 12 6 22 13 22 15 0 8 -5 6 -26 -11z"/>
<path d="M3574 1554 c-18 -14 -18 -15 4 -4 12 6 22 13 22 15 0 8 -5 6 -26 -11z"/>
<path d="M2310 1546 c0 -3 9 -10 20 -16 11 -6 20 -8 20 -6 0 3 -9 10 -20 16
-11 6 -20 8 -20 6z"/>
<path d="M3704 1534 c-18 -14 -18 -15 4 -4 12 6 22 13 22 15 0 8 -5 6 -26 -11z"/>
<path d="M4120 1543 c0 -6 8 -17 18 -24 16 -13 16 -13 2 6 -8 11 -16 22 -17
24 -2 2 -3 0 -3 -6z"/>
<path d="M4221 1530 c-13 -11 -19 -20 -14 -20 6 0 18 9 28 20 23 25 17 25 -14
0z"/>
<path d="M2735 1532 l29 -7 -41 -19 c-39 -17 -102 -72 -102 -89 0 -4 -3 -27
-6 -51 -20 -132 109 -358 237 -416 71 -32 102 -26 213 39 77 46 104 57 117 50
10 -5 18 -7 18 -5 0 3 -17 14 -38 25 -51 26 -60 39 -72 102 -5 30 -28 90 -49
134 -67 135 -181 230 -289 240 -32 3 -37 2 -17 -3z m101 -77 c131 -77 235
-287 204 -415 -32 -131 -159 -131 -284 0 -213 223 -150 548 80 415z"/>
<path d="M2756 1324 c-41 -40 -11 -153 54 -208 34 -28 87 -35 108 -14 18 18
15 27 -7 21 -22 -6 -85 46 -106 87 -8 16 -17 46 -21 69 -6 37 -4 42 17 50 l24
10 -27 0 c-15 1 -34 -6 -42 -15z"/>
<path d="M2852 1308 c15 -12 36 -39 47 -58 12 -19 21 -30 21 -25 0 19 -50 84
-73 96 -18 9 -18 7 5 -13z"/>
<path d="M3504 1514 c-18 -14 -18 -15 4 -4 12 6 22 13 22 15 0 8 -5 6 -26 -11z"/>
<path d="M4344 1514 c-18 -14 -18 -15 4 -4 12 6 22 13 22 15 0 8 -5 6 -26 -11z"/>
<path d="M2360 1516 c0 -3 14 -12 30 -21 17 -9 30 -13 30 -11 0 3 -13 12 -30
21 -16 9 -30 13 -30 11z"/>
<path d="M2628 1493 c-18 -21 -31 -43 -25 -43 2 0 13 14 25 30 25 33 24 41 0
13z"/>
<path d="M3634 1494 c-18 -14 -18 -15 4 -4 12 6 22 13 22 15 0 8 -5 6 -26 -11z"/>
<path d="M4168 1503 c7 -3 16 -2 19 1 4 3 -2 6 -13 5 -11 0 -14 -3 -6 -6z"/>
<path d="M4294 1484 c-18 -14 -18 -15 4 -4 12 6 22 13 22 15 0 8 -5 6 -26 -11z"/>
<path d="M920 1486 c0 -2 53 -35 118 -71 64 -37 120 -70 125 -72 4 -2 7 -2 7
1 0 2 -53 35 -117 71 -65 37 -121 70 -125 72 -5 2 -8 2 -8 -1z"/>
<path d="M4238 1454 c-38 -20 -36 -28 2 -9 17 9 30 18 30 20 0 7 -1 6 -32 -11z"/>
<path d="M2500 1436 c0 -3 9 -10 20 -16 11 -6 20 -8 20 -6 0 3 -9 10 -20 16
-11 6 -20 8 -20 6z"/>
<path d="M2593 1428 c2 -7 -3 -19 -12 -26 -14 -11 -13 -12 6 -2 14 6 20 16 17
25 -7 18 -17 20 -11 3z"/>
<path d="M3514 1424 c-18 -14 -18 -15 4 -4 12 6 22 13 22 15 0 8 -5 6 -26 -11z"/>
<path d="M4174 1414 c-18 -14 -18 -15 4 -4 12 6 22 13 22 15 0 8 -5 6 -26 -11z"/>
<path d="M4118 1384 c-38 -20 -36 -28 2 -9 17 9 30 18 30 20 0 7 -1 6 -32 -11z"/>
<path d="M3581 1357 c2 -1 13 -9 24 -17 19 -14 19 -14 6 3 -7 9 -18 17 -24 17
-6 0 -8 -1 -6 -3z"/>
<path d="M4054 1344 c-18 -14 -18 -15 4 -4 12 6 22 13 22 15 0 8 -5 6 -26 -11z"/>
<path d="M1180 1336 c0 -2 53 -35 118 -71 64 -37 120 -70 125 -72 4 -2 7 -2 7
1 0 2 -53 35 -117 71 -65 37 -121 70 -125 72 -5 2 -8 2 -8 -1z"/>
<path d="M3475 1304 c-9 -15 -12 -23 -6 -20 11 7 35 46 28 46 -3 0 -12 -12
-22 -26z"/>
<path d="M3998 1314 c-38 -20 -36 -28 2 -9 17 9 30 18 30 20 0 7 -1 6 -32 -11z"/>
<path d="M3622 1290 c0 -19 2 -27 5 -17 2 9 2 25 0 35 -3 9 -5 1 -5 -18z"/>
<path d="M3560 1285 c0 -39 -27 -83 -63 -105 -30 -19 -25 -26 13 -20 41 5 87
81 76 125 -8 33 -26 32 -26 0z"/>
<path d="M3903 1259 c-29 -17 -53 -33 -53 -36 0 -5 89 44 105 58 16 16 1 9
-52 -22z"/>
<path d="M3605 1220 c-4 -12 -23 -41 -43 -64 -36 -41 -36 -41 -3 -11 33 30 66
83 58 92 -3 2 -8 -5 -12 -17z"/>
<path d="M3431 1214 c0 -11 3 -14 6 -6 3 7 2 16 -1 19 -3 4 -6 -2 -5 -13z"/>
<path d="M3783 1189 c-29 -17 -53 -33 -53 -36 0 -5 89 44 105 58 16 16 1 9
-52 -22z"/>
<path d="M1440 1186 c0 -3 57 -37 173 -103 4 -2 7 -2 7 1 0 3 -57 37 -172 103
-5 2 -8 2 -8 -1z"/>
<path d="M3688 1134 c-38 -20 -36 -28 2 -9 17 9 30 18 30 20 0 7 -1 6 -32 -11z"/>
<path d="M3593 1079 c-29 -17 -53 -33 -53 -36 0 -5 89 44 105 58 16 16 1 9
-52 -22z"/>
<path d="M1630 1076 c0 -2 53 -35 118 -71 64 -37 120 -70 125 -72 4 -2 7 -2 7
1 0 2 -53 35 -117 71 -65 37 -121 70 -125 72 -5 2 -8 2 -8 -1z"/>
<path d="M3473 1009 c-29 -17 -53 -33 -53 -36 0 -5 89 44 105 58 16 16 1 9
-52 -22z"/>
<path d="M3210 1026 c0 -3 14 -12 30 -21 17 -9 30 -13 30 -11 0 3 -13 12 -30
21 -16 9 -30 13 -30 11z"/>
<path d="M3280 986 c0 -3 9 -10 20 -16 11 -6 20 -8 20 -6 0 3 -9 10 -20 16
-11 6 -20 8 -20 6z"/>
<path d="M1890 926 c0 -2 53 -35 118 -71 64 -37 120 -70 125 -72 4 -2 7 -2 7
1 0 2 -53 35 -117 71 -65 37 -121 70 -125 72 -5 2 -8 2 -8 -1z"/>
<path d="M2150 776 c0 -2 53 -35 118 -71 64 -37 120 -70 125 -72 4 -2 7 -2 7
1 0 2 -53 35 -117 71 -65 37 -121 70 -125 72 -5 2 -8 2 -8 -1z"/>
<path d="M4475 696 c-19 -14 -19 -15 8 -27 36 -16 86 3 67 26 -16 19 -50 19
-75 1z"/>
<path d="M1018 673 c-25 -6 -23 -30 3 -38 28 -9 69 2 69 19 0 12 -34 28 -50
25 -3 -1 -13 -3 -22 -6z"/>
<path d="M2410 626 c0 -3 57 -37 173 -103 4 -2 7 -2 7 1 0 3 -57 37 -172 103
-5 2 -8 2 -8 -1z"/>
<path d="M2600 516 c0 -2 53 -35 118 -71 64 -37 120 -70 125 -72 4 -2 7 -2 7
1 0 2 -53 35 -117 71 -65 37 -121 70 -125 72 -5 2 -8 2 -8 -1z"/>
</g>
</svg>
